<?xml version="1.0" encoding="utf-8"?>
<!-- Generator: Adobe Illustrator 25.4.1, SVG Export Plug-In . SVG Version: 6.00 Build 0)  -->
<svg version="1.1" id="Layer_1" xmlns="http://www.w3.org/2000/svg" xmlns:xlink="http://www.w3.org/1999/xlink" x="0px" y="0px"
	 viewBox="0 0 24 24" style="enable-background:new 0 0 24 24;" xml:space="preserve">
<style type="text/css">
	.st0{fill:#2B2B2B;}
</style>
<path class="st0" d="M15,22.8H9c-5.4,0-7.8-2.3-7.8-7.8V9c0-5.4,2.3-7.8,7.8-7.8h6c5.4,0,7.8,2.3,7.8,7.8v6
	C22.8,20.4,20.4,22.8,15,22.8z M9,2.8C4.4,2.8,2.8,4.4,2.8,9v6c0,4.6,1.6,6.2,6.2,6.2h6c4.6,0,6.2-1.6,6.2-6.2V9
	c0-4.6-1.6-6.2-6.2-6.2H9z"/>
<path class="st0" d="M21.5,7.9h-19c-0.4,0-0.8-0.3-0.8-0.8s0.3-0.8,0.8-0.8h19c0.4,0,0.8,0.3,0.8,0.8S21.9,7.9,21.5,7.9z"/>
<path class="st0" d="M8.5,7.7C8.1,7.7,7.8,7.4,7.8,7V2.1c0-0.4,0.3-0.8,0.8-0.8s0.8,0.3,0.8,0.8V7C9.3,7.4,8.9,7.7,8.5,7.7z"/>
<path class="st0" d="M15.5,7.3c-0.4,0-0.8-0.3-0.8-0.8V2.1c0-0.4,0.3-0.8,0.8-0.8s0.7,0.3,0.7,0.8v4.4C16.2,6.9,15.9,7.3,15.5,7.3z"
	/>
<path class="st0" d="M11.1,18.1c-0.4,0-0.7-0.1-1-0.3C9.4,17.5,9,16.7,9,15.6v-2.4c0-1,0.4-1.8,1.1-2.2c0.7-0.4,1.6-0.3,2.5,0.2
	l2.1,1.2c0.9,0.5,1.4,1.2,1.4,2c0,0.8-0.5,1.6-1.4,2.1l-2.1,1.2C12.1,18,11.6,18.1,11.1,18.1z M11.1,12.3c-0.1,0-0.2,0-0.3,0.1
	c-0.2,0.1-0.3,0.5-0.3,0.9v2.4c0,0.4,0.1,0.8,0.3,0.9c0.2,0.1,0.6,0.1,1-0.2l2.1-1.2c0.4-0.2,0.6-0.5,0.6-0.8c0-0.2-0.2-0.5-0.6-0.8
	l-2.1-1.2C11.5,12.3,11.3,12.3,11.1,12.3z"/>
</svg>
